<svg width="274" height="115" viewBox="0 0 274 115" fill="none" xmlns="http://www.w3.org/2000/svg">
<path d="M82.92 77H76.2V43.05H80.89L82.08 47.53C83.2467 46.4567 84.53 45.5 85.93 44.66C87.33 43.82 88.7767 43.1667 90.27 42.7C91.7633 42.1867 93.21 41.93 94.61 41.93C97.0833 41.93 99.09 42.49 100.63 43.61C102.217 44.6833 103.383 46.1767 104.13 48.09C104.877 50.0033 105.25 52.1733 105.25 54.6V77H98.53V55.23C98.53 53.69 98.3667 52.36 98.04 51.24C97.7133 50.12 97.1533 49.2567 96.36 48.65C95.6133 47.9967 94.5633 47.67 93.21 47.67C92.1833 47.67 91.0867 47.9267 89.92 48.44C88.7533 48.9067 87.5633 49.56 86.35 50.4C85.1833 51.1933 84.04 52.08 82.92 53.06V77ZM104.69 53.06L103.85 47.53C105.017 46.4567 106.3 45.5 107.7 44.66C109.1 43.82 110.547 43.1667 112.04 42.7C113.533 42.1867 114.98 41.93 116.38 41.93C118.853 41.93 120.86 42.49 122.4 43.61C123.987 44.6833 125.153 46.1767 125.9 48.09C126.647 50.0033 127.02 52.1733 127.02 54.6V77H120.3V55.23C120.3 53.69 120.137 52.36 119.81 51.24C119.483 50.12 118.923 49.2567 118.13 48.65C117.383 47.9967 116.333 47.67 114.98 47.67C113.953 47.67 112.857 47.9267 111.69 48.44C110.523 48.9067 109.333 49.56 108.12 50.4C106.953 51.1933 105.81 52.08 104.69 53.06ZM140.236 67.2C140.236 68.04 140.446 68.88 140.866 69.72C141.286 70.5133 141.916 71.19 142.756 71.75C143.596 72.2633 144.646 72.52 145.906 72.52C147.632 72.52 149.242 72.1 150.736 71.26C152.276 70.42 153.629 69.3467 154.796 68.04V61.18H146.536C144.482 61.18 142.919 61.7867 141.846 63C140.772 64.2133 140.236 65.6133 140.236 67.2ZM138.136 50.47L136.246 45.15C137.132 44.5433 138.299 44.03 139.746 43.61C141.192 43.1433 142.662 42.7933 144.156 42.56C145.649 42.28 146.862 42.14 147.796 42.14C150.409 42.14 152.742 42.6767 154.796 43.75C156.896 44.7767 158.529 46.2 159.696 48.02C160.909 49.7933 161.516 51.7767 161.516 53.97V77H156.826L155.986 73.78C154.819 74.8067 153.326 75.74 151.506 76.58C149.686 77.42 147.866 77.84 146.046 77.84C142.032 77.84 139.046 76.8367 137.086 74.83C135.172 72.8233 134.216 70.28 134.216 67.2C134.216 63.7933 135.359 61.2033 137.646 59.43C139.979 57.61 142.989 56.7 146.676 56.7H154.726V56.35C154.726 54.0167 154.259 52.08 153.326 50.54C152.392 48.9533 150.596 48.16 147.936 48.16C145.929 48.16 144.109 48.4167 142.476 48.93C140.842 49.3967 139.396 49.91 138.136 50.47ZM198.627 43.05V80.01C198.627 82.4833 197.997 84.7 196.737 86.66C195.477 88.6667 193.634 90.23 191.207 91.35C188.827 92.5167 185.887 93.1 182.387 93.1C181.687 93.1 180.801 93.03 179.727 92.89C178.701 92.75 177.604 92.54 176.437 92.26C175.317 91.98 174.221 91.63 173.147 91.21C172.074 90.79 171.141 90.3 170.347 89.74L172.377 84.91C174.011 85.6567 175.527 86.2867 176.927 86.8C178.374 87.36 180.124 87.64 182.177 87.64C184.977 87.64 187.287 86.9867 189.107 85.68C190.927 84.3733 191.837 82.46 191.837 79.94V48.16L194.777 43.05H198.627ZM193.937 67.06L195.967 71.89C194.987 73.2433 193.774 74.3867 192.327 75.32C190.881 76.2067 189.434 76.86 187.987 77.28C186.587 77.7 185.397 77.91 184.417 77.91C180.964 77.91 177.954 77.1633 175.387 75.67C172.867 74.13 170.931 72.0067 169.577 69.3C168.224 66.5933 167.547 63.42 167.547 59.78C167.547 56.2333 168.247 53.1533 169.647 50.54C171.047 47.88 173.007 45.8267 175.527 44.38C178.094 42.8867 181.081 42.14 184.487 42.14C185.421 42.14 186.611 42.35 188.057 42.77C189.504 43.1433 190.951 43.7733 192.397 44.66C193.891 45.5467 195.127 46.7367 196.107 48.23L194.147 52.99C192.701 51.17 191.207 49.8633 189.667 49.07C188.174 48.2767 186.424 47.88 184.417 47.88C182.317 47.88 180.521 48.4167 179.027 49.49C177.534 50.5167 176.391 51.9167 175.597 53.69C174.804 55.4633 174.407 57.47 174.407 59.71C174.407 62.1367 174.781 64.2833 175.527 66.15C176.321 68.0167 177.464 69.4867 178.957 70.56C180.451 71.6333 182.271 72.17 184.417 72.17C186.471 72.17 188.197 71.75 189.597 70.91C191.044 70.07 192.491 68.7867 193.937 67.06ZM214.59 91.56L207.87 92.33V43.05H211.65L214.59 47.25V91.56ZM212.07 52.99L210.04 48.16C211.067 46.76 212.28 45.6167 213.68 44.73C215.127 43.8433 216.573 43.19 218.02 42.77C219.467 42.35 220.657 42.14 221.59 42.14C225.09 42.14 228.1 42.8867 230.62 44.38C233.14 45.8733 235.077 47.9967 236.43 50.75C237.783 53.4567 238.46 56.63 238.46 60.27C238.46 63.77 237.76 66.85 236.36 69.51C234.96 72.17 232.977 74.2467 230.41 75.74C227.89 77.1867 224.927 77.91 221.52 77.91C220.587 77.91 219.397 77.7 217.95 77.28C216.503 76.9067 215.057 76.2767 213.61 75.39C212.163 74.5033 210.927 73.3133 209.9 71.82L211.86 67.06C213.307 68.88 214.777 70.1867 216.27 70.98C217.81 71.7733 219.583 72.17 221.59 72.17C223.737 72.17 225.533 71.6567 226.98 70.63C228.473 69.5567 229.617 68.1333 230.41 66.36C231.203 64.5867 231.6 62.58 231.6 60.34C231.6 57.9133 231.203 55.7667 230.41 53.9C229.663 52.0333 228.543 50.5633 227.05 49.49C225.557 48.4167 223.737 47.88 221.59 47.88C219.537 47.88 217.787 48.3 216.34 49.14C214.94 49.9333 213.517 51.2167 212.07 52.99ZM251.704 81.27L253.664 76.09L241.274 44.17L247.644 41.79L257.094 67.41L266.054 43.05H272.984L257.934 83.16C257.374 84.7 256.488 86.1 255.274 87.36C254.108 88.62 252.731 89.67 251.144 90.51C249.604 91.3967 247.948 92.05 246.174 92.47L243.934 87.29C245.054 86.7767 246.128 86.2633 247.154 85.75C248.181 85.2367 249.091 84.6067 249.884 83.86C250.724 83.16 251.331 82.2967 251.704 81.27Z" fill="white"/>
<path d="M0 40.7895C0 38.6966 1.69661 37 3.78947 37V37C11.6377 37 18 43.3623 18 51.2105V73.2105C18 75.3034 16.3034 77 14.2105 77V77C6.36227 77 0 70.6377 0 62.7895V40.7895Z" fill="white"/>
<path d="M22 51.2105C22 43.3623 28.3623 37 36.2105 37V37C38.3034 37 40 38.6966 40 40.7895V62.7895C40 70.6377 33.6377 77 25.7895 77V77C23.6966 77 22 75.3034 22 73.2105V51.2105Z" fill="white"/>
<path d="M44 69.5C44 65.9101 46.9101 63 50.5 63V63C54.0899 63 57 65.9101 57 69.5V70C57 73.866 53.866 77 50 77H46.7368C45.2253 77 44 75.7747 44 74.2632V69.5Z" fill="white"/>
</svg>
